<svg xmlns="http://www.w3.org/2000/svg" width="256" height="256" viewBox="0 0 256 256"><g fill="none" stroke="currentColor" stroke-linecap="round" stroke-linejoin="round" stroke-width="16"><path d="M 224.97499,72.065141 A 111.96707,111.96707 0 0 1 207.18133,207.22135 111.96707,111.96707 0 0 1 72.025105,225.01501 111.96707,111.96707 0 0 1 19.856764,99.069471 111.96707,111.96707 0 0 1 128.00866,16.081608"/><path d="M 128.00866,16.081615 V 112.05339"/><path d="m 144.00394,128.04868 a 15.995295,15.995295 0 0 1 -15.99528,15.9953 15.995295,15.995295 0 0 1 -15.99529,-15.9953 15.995295,15.995295 0 0 1 15.99529,-15.99529 15.995295,15.995295 0 0 1 15.99528,15.99529 z"/><path d="M 183.41795,96.058104 A 63.981179,63.981179 0 0 1 173.25016,173.29022 63.981179,63.981179 0 0 1 96.018049,183.45803 63.981179,63.981179 0 0 1 66.207591,111.48915 63.981179,63.981179 0 0 1 128.00866,64.067515"/></g></svg>